<svg xmlns="http://www.w3.org/2000/svg" viewBox="0 0 30 20"><rect width="30" height="20" fill="#de2910"/><polygon points="5,2 6.5,6.9 11,6.9 7.3,9.6 8.7,14.5 5,11.8 1.3,14.5 2.7,9.6 -1,6.9 3.5,6.9" fill="#ffde00"/><polygon points="10,1 10.9,3.7 13.6,3.7 11.4,5.3 12.2,8 10,6.4 7.8,8 8.6,5.3 6.4,3.7 9.1,3.7" fill="#ffde00"/><polygon points="13,4 13.7,6.2 16,6.2 14.1,7.5 14.8,9.7 13,8.4 11.2,9.7 11.9,7.5 10,6.2 12.3,6.2" fill="#ffde00"/><polygon points="13,8 13.7,10.2 16,10.2 14.1,11.5 14.8,13.7 13,12.4 11.2,13.7 11.9,11.5 10,10.2 12.3,10.2" fill="#ffde00"/><polygon points="10,11 10.9,13.7 13.6,13.7 11.4,15.3 12.2,18 10,16.4 7.8,18 8.6,15.3 6.4,13.7 9.1,13.7" fill="#ffde00"/></svg>
